<svg width="1440" height="874" viewBox="0 0 1440 874" fill="none" xmlns="http://www.w3.org/2000/svg">
<g filter="url(#filter0_d_48528_210)">
<g clip-path="url(#clip0_48528_210)">
<rect x="-404" width="1920" height="1080" rx="120" fill="black"/>
<g filter="url(#filter1_f_48528_210)">
<path d="M513.499 668.5C1217.62 802.743 1785.67 116.446 1790 -435.5C1978.26 -218.729 1966.99 592.758 2153.95 1353.46C2387.66 2304.34 1017.88 2003.77 -46.7924 1883.55C-898.527 1787.37 -671.494 370.351 -533 -300C-258.521 -248.77 -289.001 515.5 513.499 668.5Z" fill="url(#paint0_linear_48528_210)"/>
</g>
<g filter="url(#filter2_f_48528_210)">
<path d="M51.6451 939.646C736.646 1361.72 1408.05 772.959 1839.54 522.292C1677.33 925.67 1347.79 1737.49 1327.29 1757.77C1301.65 1783.12 382.836 2197.21 351.635 2186.16C326.674 2177.33 -308.93 1579.61 -623.612 1281.85C-804.884 927.602 -633.355 517.571 51.6451 939.646Z" fill="url(#paint1_linear_48528_210)"/>
</g>
</g>
<rect x="-403" y="1" width="1918" height="1078" rx="119" stroke="black" stroke-opacity="0.6" stroke-width="2"/>
</g>
<defs>
<filter id="filter0_d_48528_210" x="-432" y="0" width="1976" height="1140" filterUnits="userSpaceOnUse" color-interpolation-filters="sRGB">
<feFlood flood-opacity="0" result="BackgroundImageFix"/>
<feColorMatrix in="SourceAlpha" type="matrix" values="0 0 0 0 0 0 0 0 0 0 0 0 0 0 0 0 0 0 127 0" result="hardAlpha"/>
<feMorphology radius="12" operator="erode" in="SourceAlpha" result="effect1_dropShadow_48528_210"/>
<feOffset dy="32"/>
<feGaussianBlur stdDeviation="20"/>
<feComposite in2="hardAlpha" operator="out"/>
<feColorMatrix type="matrix" values="0 0 0 0 0 0 0 0 0 0 0 0 0 0 0 0 0 0 0.25 0"/>
<feBlend mode="normal" in2="BackgroundImageFix" result="effect1_dropShadow_48528_210"/>
<feBlend mode="normal" in="SourceGraphic" in2="effect1_dropShadow_48528_210" result="shape"/>
</filter>
<filter id="filter1_f_48528_210" x="-967.963" y="-735.5" width="3448.26" height="3060.53" filterUnits="userSpaceOnUse" color-interpolation-filters="sRGB">
<feFlood flood-opacity="0" result="BackgroundImageFix"/>
<feBlend mode="normal" in="SourceGraphic" in2="BackgroundImageFix" result="shape"/>
<feGaussianBlur stdDeviation="150" result="effect1_foregroundBlur_48528_210"/>
</filter>
<filter id="filter2_f_48528_210" x="-990.957" y="222.292" width="3130.49" height="2264.09" filterUnits="userSpaceOnUse" color-interpolation-filters="sRGB">
<feFlood flood-opacity="0" result="BackgroundImageFix"/>
<feBlend mode="normal" in="SourceGraphic" in2="BackgroundImageFix" result="shape"/>
<feGaussianBlur stdDeviation="150" result="effect1_foregroundBlur_48528_210"/>
</filter>
<linearGradient id="paint0_linear_48528_210" x1="1069.81" y1="888.65" x2="-40.3002" y2="888.65" gradientUnits="userSpaceOnUse">
<stop stop-color="#5613A3"/>
<stop offset="1" stop-color="#522BC8"/>
</linearGradient>
<linearGradient id="paint1_linear_48528_210" x1="1171.38" y1="1076.52" x2="-127.194" y2="866.198" gradientUnits="userSpaceOnUse">
<stop stop-color="#AC88FF"/>
<stop offset="0.682692" stop-color="#AD3AE7"/>
</linearGradient>
<clipPath id="clip0_48528_210">
<rect x="-404" width="1920" height="1080" rx="120" fill="white"/>
</clipPath>
</defs>
</svg>
